<?xml version="1.0" encoding="utf-8"?>
<!-- Generator: Adobe Illustrator 27.7.0, SVG Export Plug-In . SVG Version: 6.00 Build 0)  -->
<svg version="1.1" id="Layer_1" xmlns="http://www.w3.org/2000/svg" xmlns:xlink="http://www.w3.org/1999/xlink" x="0px" y="0px"
	 viewBox="0 0 20 20" style="enable-background:new 0 0 20 20;" xml:space="preserve">
<path d="M1.1,20c-0.4,0.1-0.7,0-0.9-0.3C0,19.5,0,19.2,0,18.8l0.9-4l4.3,4.3C5.2,19.1,1.1,20,1.1,20z M5.9,18.5l-4.4-4.4L15.1,0.5
	C15.4,0.2,15.9,0,16.4,0c0.5,0,0.9,0.2,1.3,0.5l1.8,1.8C19.8,2.7,20,3.1,20,3.6c0,0.5-0.2,0.9-0.5,1.3C19.5,4.9,5.9,18.5,5.9,18.5z"
	/>
</svg>
